<mxfile host="app.diagrams.net" modified="2022-04-06T11:51:09.316Z" agent="5.0 (Windows NT 10.0; Win64; x64) AppleWebKit/537.36 (KHTML, like Gecko) Chrome/99.0.4844.84 Safari/537.36" etag="OKv6IYTZ-sNdJfkB5_Wu" version="17.4.0" type="github">
  <diagram id="66ICu8R35jpRn7LBF2Qq" name="Page-1">
    <mxGraphModel dx="1865" dy="547" grid="0" gridSize="10" guides="1" tooltips="1" connect="1" arrows="1" fold="1" page="1" pageScale="1" pageWidth="827" pageHeight="1169" background="#FFCCCC" math="0" shadow="0">
      <root>
        <mxCell id="0" />
        <mxCell id="1" parent="0" />
        <mxCell id="4yIgp8YZ1Vs8MLATzpHQ-2" style="edgeStyle=orthogonalEdgeStyle;rounded=0;orthogonalLoop=1;jettySize=auto;html=1;exitX=1;exitY=0.5;exitDx=0;exitDy=0;entryX=0.105;entryY=0.498;entryDx=0;entryDy=0;entryPerimeter=0;" edge="1" parent="1" source="LLvebhQf9_cgqPC14got-1" target="LLvebhQf9_cgqPC14got-3">
          <mxGeometry relative="1" as="geometry" />
        </mxCell>
        <mxCell id="LLvebhQf9_cgqPC14got-1" value="Documents" style="swimlane;fillColor=#dae8fc;strokeColor=#6c8ebf;" parent="1" vertex="1">
          <mxGeometry x="13" y="85" width="122.5" height="110" as="geometry" />
        </mxCell>
        <mxCell id="LLvebhQf9_cgqPC14got-21" value="Passport&lt;br&gt;Birth Certificate&lt;br&gt;Employment &lt;br&gt;Contract" style="text;html=1;align=center;verticalAlign=middle;resizable=0;points=[];autosize=1;strokeColor=#d6b656;fillColor=#fff2cc;" parent="LLvebhQf9_cgqPC14got-1" vertex="1">
          <mxGeometry x="11.25" y="40" width="100" height="60" as="geometry" />
        </mxCell>
        <mxCell id="LLvebhQf9_cgqPC14got-2" value="OCR REST APIS BASED" style="text;html=1;align=left;verticalAlign=middle;whiteSpace=wrap;rounded=0;dashed=1;fontStyle=1;fontSize=14;" parent="1" vertex="1">
          <mxGeometry x="-452" y="12" width="170" height="30" as="geometry" />
        </mxCell>
        <mxCell id="4yIgp8YZ1Vs8MLATzpHQ-1" style="edgeStyle=orthogonalEdgeStyle;rounded=0;orthogonalLoop=1;jettySize=auto;html=1;exitX=0.55;exitY=0.95;exitDx=0;exitDy=0;exitPerimeter=0;entryX=0.5;entryY=1;entryDx=0;entryDy=0;" edge="1" parent="1" source="LLvebhQf9_cgqPC14got-3" target="LLvebhQf9_cgqPC14got-13">
          <mxGeometry relative="1" as="geometry">
            <Array as="points">
              <mxPoint x="326" y="341" />
              <mxPoint x="-162" y="341" />
            </Array>
          </mxGeometry>
        </mxCell>
        <mxCell id="LLvebhQf9_cgqPC14got-3" value="REST OCR SERVICES" style="ellipse;shape=cloud;whiteSpace=wrap;html=1;fillColor=#1ba1e2;fontColor=#ffffff;strokeColor=#006EAF;" parent="1" vertex="1">
          <mxGeometry x="260" y="100" width="120" height="80" as="geometry" />
        </mxCell>
        <mxCell id="LLvebhQf9_cgqPC14got-14" style="edgeStyle=orthogonalEdgeStyle;rounded=0;orthogonalLoop=1;jettySize=auto;html=1;entryX=0;entryY=0.5;entryDx=0;entryDy=0;" parent="1" source="LLvebhQf9_cgqPC14got-13" target="LLvebhQf9_cgqPC14got-1" edge="1">
          <mxGeometry relative="1" as="geometry" />
        </mxCell>
        <mxCell id="LLvebhQf9_cgqPC14got-13" value="IPERMIT" style="rounded=1;whiteSpace=wrap;html=1;fillColor=#00CC00;strokeColor=#00FF00;" parent="1" vertex="1">
          <mxGeometry x="-222" y="196" width="120" height="60" as="geometry" />
        </mxCell>
        <mxCell id="LLvebhQf9_cgqPC14got-17" value="Mindee&lt;br&gt;Klippa" style="text;html=1;align=center;verticalAlign=middle;resizable=0;points=[];autosize=1;strokeColor=none;fillColor=#BDF6FF;" parent="1" vertex="1">
          <mxGeometry x="290" y="90" width="50" height="30" as="geometry" />
        </mxCell>
        <mxCell id="4yIgp8YZ1Vs8MLATzpHQ-3" value="These&lt;br/&gt;providers sanitize the files , extract data ,&amp;nbsp;&lt;br/&gt;structure data&amp;nbsp; formats&lt;br/&gt;&amp;gt;&amp;gt;Translate &amp;gt;&amp;gt;&amp;nbsp; send the&lt;br/&gt;requested parameters" style="text;html=1;strokeColor=none;fillColor=none;align=center;verticalAlign=middle;whiteSpace=wrap;rounded=0;" vertex="1" parent="1">
          <mxGeometry x="314" y="211" width="182" height="30" as="geometry" />
        </mxCell>
      </root>
    </mxGraphModel>
  </diagram>
</mxfile>
